<svg width="56" height="56" viewBox="0 0 56 56" fill="none" xmlns="http://www.w3.org/2000/svg">
<path d="M53.3289 7.12415C49.3721 16.9904 39.4544 30.4023 31.1555 37.0569L26.0939 41.1165C25.4515 41.5789 24.8092 41.99 24.0898 42.2727C24.0898 41.8102 24.0641 41.2963 23.987 40.8081C23.7044 38.6499 22.728 36.6458 21.0066 34.9243C19.2594 33.1772 17.1269 32.1495 14.9429 31.8668C14.4291 31.8411 13.9152 31.7898 13.4013 31.8411C13.684 31.0446 14.1207 30.2995 14.6603 29.6829L18.6685 24.6213C25.2974 16.3224 38.7607 6.35335 48.6013 2.42226C50.1172 1.85701 51.5817 2.2681 52.5067 3.21875C53.483 4.16941 53.9455 5.63393 53.3289 7.12415Z" stroke="url(#paint0_linear_119_26)" stroke-width="4" stroke-linecap="round" stroke-linejoin="round"/>
<path d="M24.0898 42.2728C24.0898 45.0991 23.0107 47.7966 20.9809 49.8521C19.4136 51.4194 17.281 52.4988 14.7374 52.8328L8.41683 53.5265C4.97392 53.9119 2.01918 50.9826 2.43027 47.4883L3.12399 41.168C3.74063 35.5411 8.44252 31.944 13.427 31.8413C13.9409 31.8156 14.4805 31.841 14.9686 31.8667C17.1526 32.1493 19.2851 33.1516 21.0323 34.9245C22.7537 36.6459 23.7301 38.6498 24.0127 40.808C24.0384 41.2962 24.0898 41.7846 24.0898 42.2728Z" stroke="url(#paint1_linear_119_26)" stroke-width="4" stroke-linecap="round" stroke-linejoin="round"/>
<path d="M33.879 34.1794C33.879 27.4734 28.432 22.0264 21.726 22.0264" stroke="url(#paint2_linear_119_26)" stroke-width="4" stroke-linecap="round" stroke-linejoin="round"/>
<defs>
<linearGradient id="paint0_linear_119_26" x1="33.5047" y1="2.16504" x2="33.5047" y2="42.2727" gradientUnits="userSpaceOnUse">
<stop stop-color="#F9C866"/>
<stop offset="1" stop-color="#F7AE1B"/>
</linearGradient>
<linearGradient id="paint1_linear_119_26" x1="13.2409" y1="31.8306" x2="13.2409" y2="53.5607" gradientUnits="userSpaceOnUse">
<stop stop-color="#F9C866"/>
<stop offset="1" stop-color="#F7AE1B"/>
</linearGradient>
<linearGradient id="paint2_linear_119_26" x1="27.8025" y1="22.0264" x2="27.8025" y2="34.1794" gradientUnits="userSpaceOnUse">
<stop stop-color="#F9C866"/>
<stop offset="1" stop-color="#F7AE1B"/>
</linearGradient>
</defs>
</svg>
